<svg width="76" height="100" viewBox="0 0 76 100" fill="none" xmlns="http://www.w3.org/2000/svg">
<path fill-rule="evenodd" clip-rule="evenodd" d="M50.5058 97.6166C40.5063 100.296 31.9086 99.5583 24.5774 95.4398C17.2462 91.3214 11.9826 83.0282 8.65154 70.5965L2.17043 46.4086C-1.12444 34.112 -0.712651 24.2981 3.71226 17.0296C8.00203 9.79738 15.0429 4.72455 25.0423 2.0452C34.7715 -0.561723 43.4055 0.31106 50.7366 4.4295C58.0678 8.54794 63.4665 16.8049 66.7614 29.1015L73.2425 53.2894C76.5736 65.7211 76.0267 75.5712 71.7369 82.8035C67.312 90.072 60.2349 95.0097 50.5058 97.6166ZM61.1994 80.7651C65.5854 75.1579 66.3627 67.0707 63.523 56.473L57.0057 32.1501C55.2762 25.6956 52.9107 20.6445 49.909 16.9969L25.1191 59.9342L61.1994 80.7651ZM53.1732 86.7926C51.6627 87.4679 50.0099 88.0459 48.215 88.5268C40.783 90.5182 34.5645 90.012 29.6585 86.8369C24.7887 83.7969 21.1228 77.6825 18.6607 68.4939L18.1449 66.569L53.1732 86.7926ZM15.4034 56.3376L12.1434 44.1709C9.60885 34.712 9.65406 27.3136 12.279 21.9757C14.9039 16.6378 19.8649 12.9912 27.432 10.9636C32.807 9.5234 37.5274 9.52744 41.5931 10.9757L15.4034 56.3376Z" fill="white"/>
</svg>
