<svg width="218" height="42" viewBox="0 0 218 42" fill="none" xmlns="http://www.w3.org/2000/svg">
<ellipse cx="21" cy="21" rx="21" ry="21" fill="black"/>
<path fill-rule="evenodd" clip-rule="evenodd" d="M24.0187 32.4937C21.605 33.1404 19.5297 32.9624 17.7601 31.9682C15.9905 30.9741 14.72 28.9723 13.9159 25.9716L12.3515 20.1331C11.5562 17.165 11.6556 14.7961 12.7237 13.0416C13.7592 11.2959 15.4587 10.0715 17.8723 9.42471C20.2208 8.79545 22.3048 9.00613 24.0744 10.0002C25.844 10.9943 27.1471 12.9874 27.9425 15.9556L29.5069 21.794C30.3109 24.7948 30.1789 27.1724 29.1434 28.9181C28.0754 30.6726 26.3671 31.8644 24.0187 32.4937ZM26.5999 28.4261C27.6586 27.0726 27.8462 25.1205 27.1608 22.5625L25.5876 16.6914C25.1702 15.1334 24.5992 13.9142 23.8746 13.0337L17.8908 23.3979L26.5999 28.4261ZM24.6625 29.881C24.2979 30.044 23.899 30.1835 23.4657 30.2996C21.6718 30.7803 20.1708 30.6581 18.9866 29.8917C17.8111 29.1579 16.9262 27.682 16.3319 25.464L16.2075 24.9995L24.6625 29.881ZM15.5457 22.5297L14.7588 19.593C14.147 17.3098 14.1579 15.524 14.7915 14.2355C15.4251 12.9471 16.6226 12.0669 18.4492 11.5774C19.7465 11.2298 20.8859 11.2308 21.8673 11.5803L15.5457 22.5297Z" fill="white"/>
<path d="M59.0028 18.3048H61.4649V16.1628H59.0028V12.5928L55.9745 13.6514V16.1628H54.2018V18.3048H55.9745V25.2724C55.9745 26.405 56.2945 27.3159 56.9839 27.9807C57.6733 28.6454 58.5843 28.9655 59.7661 28.9655H61.2187V26.3803H60.2585C59.4214 26.3803 59.0028 25.9618 59.0028 25.0754V18.3048Z" fill="black"/>
<path d="M63.4513 11.9772V28.9655H66.5042V20.9884C66.5042 20.2744 66.6766 19.7081 67.0705 19.3142C67.4644 18.9203 67.9569 18.7233 68.5478 18.7233C69.1387 18.7233 69.6311 18.9203 70.0004 19.3142C70.3451 19.7081 70.542 20.2498 70.542 20.9884V28.9655H73.595V20.6191C73.595 19.1911 73.2257 18.0585 72.5117 17.2461C71.7731 16.4336 70.7636 16.015 69.4587 16.015C68.8678 16.015 68.3262 16.1381 67.8338 16.3351C67.3167 16.5567 66.8736 16.8768 66.5042 17.2953V11.9772H63.4513Z" fill="black"/>
<path d="M79.0493 23.4751H86.5339V21.7763C86.5339 19.8805 86.0415 18.4525 85.1059 17.4676C84.1704 16.5074 82.8901 16.015 81.2897 16.015C79.6401 16.015 78.3599 16.5074 77.4243 17.4676C76.4887 18.4279 76.0209 19.8559 76.0209 21.7763V23.3274C76.0209 25.297 76.4887 26.7743 77.4735 27.7099C78.4337 28.6454 79.7386 29.1132 81.3882 29.1132C82.9393 29.1132 84.1704 28.7439 85.0813 28.0053C85.9677 27.2667 86.4355 26.3065 86.4355 25.0754V24.9523H83.5302L83.5056 25.0262C83.4564 25.494 83.284 25.8633 82.9393 26.1095C82.5946 26.3557 82.1022 26.4788 81.5113 26.4788C80.7235 26.4788 80.1079 26.2819 79.6894 25.8633C79.2462 25.4694 79.0493 24.78 79.0493 23.8198V23.4751ZM79.6155 19.2403C80.0095 18.8464 80.5511 18.6248 81.2897 18.6248C82.7424 18.6248 83.481 19.4373 83.481 21.0623V21.3823H79.0493V21.3085C79.0493 20.3483 79.2216 19.6589 79.6155 19.2403Z" fill="black"/>
<path d="M95.3843 27.8083C96.3199 28.6947 97.5756 29.1132 99.2005 29.1132C100.776 29.1132 102.032 28.6947 102.967 27.8083C103.878 26.9466 104.346 25.5925 104.346 23.7459V21.3577C104.346 19.5358 103.878 18.2063 102.967 17.3199C102.032 16.4582 100.776 16.015 99.2005 16.015C97.5756 16.015 96.3199 16.4582 95.3843 17.3199C94.4487 18.2063 94.0056 19.5358 94.0056 21.3577V23.7459C94.0056 25.5925 94.4487 26.9466 95.3843 27.8083ZM101.318 23.7213C101.318 25.5186 100.604 26.405 99.2005 26.405C97.7479 26.405 97.0339 25.5186 97.0339 23.7213V21.407C97.0339 19.6343 97.7479 18.7233 99.2005 18.7233C100.604 18.7233 101.318 19.6343 101.318 21.407V23.7213Z" fill="black"/>
<path d="M109.757 27.7837C110.471 28.6701 111.48 29.1132 112.785 29.1132C113.992 29.1132 115.001 28.6947 115.814 27.8083C116.602 26.922 117.02 25.5925 117.02 23.8198V21.2839C117.02 19.5112 116.602 18.2063 115.814 17.3199C115.001 16.4582 113.967 16.015 112.687 16.015C111.48 16.015 110.52 16.5074 109.831 17.4676V11.9772H106.778V28.9655H109.757V27.7837ZM113.967 23.7213C113.967 25.5186 113.302 26.405 111.998 26.405C111.308 26.405 110.766 26.1834 110.373 25.7156C109.979 25.2724 109.806 24.6076 109.806 23.7213V21.407C109.806 20.5452 109.979 19.8805 110.373 19.4127C110.742 18.9695 111.259 18.7233 111.924 18.7233C112.539 18.7233 113.032 18.9449 113.401 19.3634C113.77 19.782 113.967 20.4714 113.967 21.407V23.7213Z" fill="black"/>
<path d="M120.458 27.9561C121.148 28.6454 122.108 28.9655 123.339 28.9655H124.742V26.3311H123.708C123.265 26.3311 122.97 26.2326 122.773 26.011C122.576 25.7894 122.502 25.4201 122.502 24.8785V11.9772H119.449V25.0754C119.449 26.3311 119.769 27.2913 120.458 27.9561Z" fill="black"/>
<path d="M126.641 16.1628V28.9655H129.669V16.1628H126.641ZM126.592 11.9772V14.4147H129.694V11.9772H126.592Z" fill="black"/>
<path d="M139.424 27.8083V32.8063H142.453V16.1628H139.473V17.4676C138.735 16.5074 137.775 16.015 136.544 16.015C135.263 16.015 134.205 16.4582 133.417 17.3199C132.629 18.2063 132.235 19.5112 132.235 21.2839V23.8198C132.235 25.5925 132.629 26.922 133.417 27.8083C134.205 28.6947 135.239 29.1132 136.47 29.1132C137.725 29.1132 138.71 28.6947 139.424 27.8083ZM138.858 25.7156C138.464 26.1834 137.947 26.405 137.258 26.405C135.928 26.405 135.288 25.5186 135.288 23.7213V21.407C135.288 19.6343 135.953 18.7233 137.331 18.7233C137.972 18.7233 138.489 18.9695 138.858 19.4127C139.227 19.8805 139.424 20.5452 139.424 21.407V23.7213C139.424 24.6076 139.227 25.2724 138.858 25.7156Z" fill="black"/>
<path d="M145.103 23.7952C145.103 27.3405 146.778 29.1132 150.175 29.1132C151.874 29.1132 153.154 28.6701 153.992 27.7837C154.829 26.8974 155.247 25.5679 155.247 23.7952V16.1628H152.194V23.6474C152.194 24.6076 152.047 25.297 151.776 25.7402C151.505 26.1834 150.963 26.405 150.175 26.405C149.363 26.405 148.821 26.1834 148.55 25.7156C148.28 25.2478 148.156 24.5584 148.156 23.6474V16.1628H145.103V23.7952Z" fill="black"/>
<path d="M160.701 23.4751H168.186V21.7763C168.186 19.8805 167.694 18.4525 166.758 17.4676C165.823 16.5074 164.542 16.015 162.942 16.015C161.292 16.015 160.012 16.5074 159.077 17.4676C158.141 18.4279 157.673 19.8559 157.673 21.7763V23.3274C157.673 25.297 158.141 26.7743 159.126 27.7099C160.086 28.6454 161.391 29.1132 163.04 29.1132C164.592 29.1132 165.823 28.7439 166.734 28.0053C167.62 27.2667 168.088 26.3065 168.088 25.0754V24.9523H165.182L165.158 25.0262C165.109 25.494 164.936 25.8633 164.592 26.1095C164.247 26.3557 163.754 26.4788 163.164 26.4788C162.376 26.4788 161.76 26.2819 161.342 25.8633C160.898 25.4694 160.701 24.78 160.701 23.8198V23.4751ZM161.268 19.2403C161.662 18.8464 162.203 18.6248 162.942 18.6248C164.395 18.6248 165.133 19.4373 165.133 21.0623V21.3823H160.701V21.3085C160.701 20.3483 160.874 19.6589 161.268 19.2403Z" fill="black"/>
<path d="M176.769 27.9561C177.458 28.6454 178.418 28.9655 179.649 28.9655H181.053V26.3311H180.019C179.575 26.3311 179.28 26.2326 179.083 26.011C178.886 25.7894 178.812 25.4201 178.812 24.8785V11.9772H175.759V25.0754C175.759 26.3311 176.079 27.2913 176.769 27.9561Z" fill="black"/>
<path d="M185.635 23.4751H193.119V21.7763C193.119 19.8805 192.627 18.4525 191.691 17.4676C190.756 16.5074 189.476 16.015 187.875 16.015C186.226 16.015 184.945 16.5074 184.01 17.4676C183.074 18.4279 182.606 19.8559 182.606 21.7763V23.3274C182.606 25.297 183.074 26.7743 184.059 27.7099C185.019 28.6454 186.324 29.1132 187.974 29.1132C189.525 29.1132 190.756 28.7439 191.667 28.0053C192.553 27.2667 193.021 26.3065 193.021 25.0754V24.9523H190.116L190.091 25.0262C190.042 25.494 189.869 25.8633 189.525 26.1095C189.18 26.3557 188.688 26.4788 188.097 26.4788C187.309 26.4788 186.693 26.2819 186.275 25.8633C185.832 25.4694 185.635 24.78 185.635 23.8198V23.4751ZM186.201 19.2403C186.595 18.8464 187.137 18.6248 187.875 18.6248C189.328 18.6248 190.066 19.4373 190.066 21.0623V21.3823H185.635V21.3085C185.635 20.3483 185.807 19.6589 186.201 19.2403Z" fill="black"/>
<path d="M195.547 16.1628V28.9655H198.6V20.9884C198.6 20.2744 198.772 19.7081 199.166 19.3142C199.56 18.9203 200.053 18.7233 200.644 18.7233C201.234 18.7233 201.727 18.9203 202.096 19.3142C202.441 19.7081 202.638 20.2744 202.638 20.9884V28.9655H205.691V20.6191C205.691 19.1911 205.321 18.0832 204.607 17.2461C203.869 16.4336 202.859 16.015 201.555 16.015C200.964 16.015 200.422 16.1381 199.88 16.3597C199.339 16.5813 198.895 16.9014 198.526 17.3199V16.1628H195.547Z" fill="black"/>
<path d="M209.104 28.0545C209.991 28.7685 211.148 29.1132 212.625 29.1132C214.152 29.1132 215.383 28.7685 216.343 28.0545C217.278 27.3405 217.771 26.3311 217.771 25.0016C217.771 23.9429 217.451 23.1058 216.811 22.4903C216.171 21.8994 215.21 21.5054 213.93 21.3085L212.428 21.0869C211.837 21.013 211.419 20.8653 211.173 20.6437C210.926 20.4468 210.803 20.1513 210.803 19.7574C210.803 19.3634 210.951 19.0188 211.296 18.7725C211.616 18.5263 212.084 18.4032 212.724 18.4032C213.339 18.4032 213.832 18.5263 214.176 18.7725C214.521 19.0188 214.718 19.3634 214.718 19.8066V19.8805H217.549V19.7328C217.549 19.0434 217.328 18.4032 216.934 17.837C216.54 17.2707 215.974 16.8275 215.235 16.5074C214.496 16.1874 213.659 16.015 212.724 16.015C211.32 16.015 210.163 16.3843 209.277 17.0983C208.39 17.8123 207.947 18.7725 207.947 19.979C207.947 21.0623 208.243 21.8748 208.858 22.441C209.449 23.0319 210.409 23.4259 211.69 23.6228L213.044 23.8444C213.684 23.9429 214.152 24.1152 214.447 24.3122C214.718 24.5338 214.866 24.8292 214.866 25.2232C214.866 25.7156 214.669 26.0603 214.299 26.3065C213.905 26.5527 213.388 26.6512 212.724 26.6512C212.084 26.6512 211.591 26.5281 211.197 26.2572C210.803 25.9864 210.631 25.6171 210.631 25.1247V25.0754H207.775V25.1739C207.775 26.3803 208.218 27.3405 209.104 28.0545Z" fill="black"/>
</svg>
