<svg width="174" height="174" viewBox="0 0 174 174" fill="none" xmlns="http://www.w3.org/2000/svg">
<circle cx="87" cy="87" r="87" fill="black"/>
<path fill-rule="evenodd" clip-rule="evenodd" d="M99.5058 134.617C89.5063 137.296 80.9086 136.558 73.5774 132.44C66.2462 128.321 60.9826 120.028 57.6515 107.596L51.1704 83.4086C47.8756 71.112 48.2873 61.2981 52.7123 54.0296C57.002 46.7974 64.0429 41.7245 74.0423 39.0452C83.7715 36.4383 92.4055 37.3111 99.7366 41.4295C107.068 45.5479 112.467 53.8049 115.761 66.1015L122.243 90.2894C125.574 102.721 125.027 112.571 120.737 119.803C116.312 127.072 109.235 132.01 99.5058 134.617ZM110.199 117.765C114.585 112.158 115.363 104.071 112.523 93.473L106.006 69.1501C104.276 62.6956 101.911 57.6445 98.909 53.9969L74.1191 96.9342L110.199 117.765ZM102.173 123.793C100.663 124.468 99.0099 125.046 97.215 125.527C89.783 127.518 83.5645 127.012 78.6585 123.837C73.7887 120.797 70.1228 114.683 67.6607 105.494L67.1449 103.569L102.173 123.793ZM64.4034 93.3376L61.1434 81.1709C58.6088 71.712 58.6541 64.3136 61.279 58.9757C63.9039 53.6378 68.8649 49.9912 76.432 47.9636C81.807 46.5234 86.5274 46.5274 90.5931 47.9757L64.4034 93.3376Z" fill="white"/>
</svg>
